<?xml version="1.0" standalone="no"?>
<!DOCTYPE svg PUBLIC "-//W3C//DTD SVG 20010904//EN"
 "http://www.w3.org/TR/2001/REC-SVG-20010904/DTD/svg10.dtd">
<svg version="1.0" xmlns="http://www.w3.org/2000/svg"
 width="260.000000pt" height="260.000000pt" viewBox="0 0 260.000000 260.000000"
 preserveAspectRatio="xMidYMid meet">
<metadata>
Created by potrace 1.14, written by Peter Selinger 2001-2017
</metadata>
<g transform="translate(0.000000,260.000000) scale(0.100000,-0.100000)"
fill="#000000" stroke="none">
<path d="M1100 2554 c-305 -45 -591 -204 -772 -432 -210 -263 -309 -622 -258
-935 12 -77 62 -239 86 -277 l15 -25 -6 25 c-4 14 -8 32 -10 40 -5 16 -14 67
-21 115 -7 46 -6 224 1 280 39 286 205 574 431 746 110 84 267 165 354 183 27
5 56 12 93 22 12 3 81 8 152 11 242 10 452 -53 650 -192 166 -118 313 -324
369 -516 33 -113 45 -212 41 -344 -2 -71 -9 -148 -15 -170 -6 -22 -12 -47 -14
-56 -7 -28 -37 -112 -45 -127 -6 -10 -30 12 -92 85 -73 85 -109 126 -154 177
-29 32 -145 165 -165 189 -13 15 -26 23 -29 19 -3 -5 -62 -58 -131 -119 -89
-78 -128 -107 -135 -99 -12 14 -129 149 -164 188 -13 16 -27 28 -31 28 -9 0
-181 -148 -290 -250 -9 -8 -56 -51 -105 -95 -50 -44 -99 -89 -111 -100 -11
-11 -63 -58 -114 -105 -51 -47 -108 -98 -126 -115 -17 -16 -77 -72 -133 -123
-55 -52 -101 -97 -101 -101 0 -16 192 -197 266 -249 142 -102 334 -183 489
-208 22 -3 44 -8 48 -11 22 -13 281 -12 378 2 366 52 680 251 886 560 41 61
123 225 123 245 0 5 4 18 9 28 44 80 80 302 75 471 -3 133 -5 160 -20 231 -4
19 -8 40 -10 46 -56 274 -269 579 -524 751 -151 101 -370 185 -550 208 -93 13
-251 12 -340 -1z m190 -1385 c19 -17 51 -45 70 -62 20 -18 67 -59 105 -92 39
-33 75 -64 81 -70 11 -10 62 -53 177 -149 37 -32 67 -54 67 -51 0 4 -18 28
-41 53 -72 82 -92 126 -97 211 -4 69 -1 81 25 131 16 30 34 55 40 55 9 0 91
-66 137 -110 12 -11 78 -69 148 -128 l128 -108 -17 -32 c-106 -208 -335 -399
-568 -477 -154 -51 -316 -15 -428 94 -84 83 -126 177 -132 294 -6 119 32 216
125 319 25 27 65 73 90 101 24 29 47 52 50 52 3 0 21 -14 40 -31z"/>
</g>
</svg>
